<svg width="64" height="64" viewBox="0 0 24 24" fill="none" xmlns="http://www.w3.org/2000/svg">
  <path d="M12 2C12.5523 2 13 2.44772 13 3V13.5858L15.2929 11.2929C15.6834 10.9024 16.3166 10.9024 16.7071 11.2929C17.0976 11.6834 17.0976 12.3166 16.7071 12.7071L12.7071 16.7071C12.3166 17.0976 11.6834 17.0976 11.2929 16.7071L7.29289 12.7071C6.90237 12.3166 6.90237 11.6834 7.29289 11.2929C7.68342 10.9024 8.31658 10.9024 8.70711 11.2929L11 13.5858V3C11 2.44772 11.4477 2 12 2Z" fill="#8BB3FB"/>
  <path d="M3 15C3 14.4477 3.44772 14 4 14C4.55228 14 5 14.4477 5 15V19C5 19.5523 5.44772 20 6 20H18C18.5523 20 19 19.5523 19 19V15C19 14.4477 19.4477 14 20 14C20.5523 14 21 14.4477 21 15V19C21 20.6569 19.6569 22 18 22H6C4.34315 22 3 20.6569 3 19V15Z" fill="#8BB3FB"/>
</svg>